<svg xmlns="http://www.w3.org/2000/svg" viewBox="0 0 1600 1000" preserveAspectRatio="xMidYMid slice">
  <defs>
    <linearGradient id="sky" x1="0" y1="0" x2="0" y2="1">
      <stop offset="0%" stop-color="#dfead6"/>
      <stop offset="45%" stop-color="#c9ddba"/>
      <stop offset="100%" stop-color="#9fbd83"/>
    </linearGradient>
    <filter id="soft">
      <feGaussianBlur stdDeviation="8"/>
    </filter>
  </defs>

  <rect width="1600" height="1000" fill="url(#sky)"/>

  <ellipse cx="470" cy="680" rx="520" ry="150" fill="#8fb6bd" opacity="0.75"/>
  <ellipse cx="470" cy="680" rx="470" ry="110" fill="#aacbd0" opacity="0.55"/>

  <path d="M1100 1000 C980 760 1120 590 1450 440 L1600 390 L1600 1000 Z" fill="#d7c79f" opacity="0.8"/>
  <path d="M1130 1000 C1020 760 1160 610 1475 475" fill="none" stroke="#f4eddc" stroke-width="42" opacity="0.7"/>

  <g opacity="0.9">
    <circle cx="120" cy="420" r="95" fill="#5d8b52"/>
    <circle cx="260" cy="360" r="120" fill="#6f9b5d"/>
    <circle cx="1380" cy="240" r="150" fill="#547d46"/>
    <circle cx="1510" cy="380" r="120" fill="#6c9657"/>
    <circle cx="1420" cy="780" r="170" fill="#557d47"/>
    <circle cx="180" cy="850" r="160" fill="#668e55"/>
    <circle cx="760" cy="260" r="120" fill="#7aa264"/>
    <circle cx="980" cy="330" r="95" fill="#638c52"/>
  </g>

  <g opacity="0.28" filter="url(#soft)">
    <circle cx="500" cy="180" r="120" fill="#fff"/>
    <circle cx="1120" cy="120" r="150" fill="#fff"/>
    <circle cx="1320" cy="610" r="110" fill="#fff"/>
  </g>

  <rect width="1600" height="1000" fill="#f4f0e6" opacity="0.18"/>
</svg>
